<svg fill="none" xmlns="http://www.w3.org/2000/svg">
    <defs>
        <linearGradient id="paint0_linear" x1="12" y1="-1" x2="12" y2="23" gradientUnits="userSpaceOnUse">
            <stop stop-color="#BC9CFF"/>
            <stop offset="1" stop-color="#8BA4F9"/>
        </linearGradient>
        <symbol id="tw" viewBox="0 0 24 20">
            <path d="M21.5 5.1v.6c0 2.3-.5 4.5-1.6 6.5a13.5 13.5 0 01-12.4 7.5c-2.7 0-5.2-.7-7.5-2.2h1.2c2.3 0 4.3-.6 6.1-2-1 0-2-.3-2.9-1a5 5 0 01-1.7-2.4H5a5 5 0 01-2.8-1.8c-.7-1-1.1-2-1.1-3.1V7c.7.4 1.4.6 2.2.7C2.5 7.3 2 6.7 1.6 6 1.2 5.2 1 4.5 1 3.6c0-.9.2-1.7.7-2.5a13.6 13.6 0 0010.1 5.2V5.2c0-.9.1-1.7.6-2.5A4.8 4.8 0 0116.6.2c.7 0 1.4.2 2 .5.6.3 1.1.6 1.6 1.1A10 10 0 0023.3.6c-.3 1.2-1 2-2.1 2.7 1 0 1.9-.3 2.8-.8-.7 1-1.5 2-2.5 2.6z" fill="url(#paint0_linear)"/>
        </symbol>
        <symbol id="fb" viewBox="0 0 22 22">
            <path d="M21.5 2.8v16.4c0 .7-.2 1.2-.7 1.6-.4.5-1 .7-1.6.7h-4v-8.3h2.9l.4-3.2h-3.2V8c0-.5 0-.9.2-1.1.3-.3.7-.4 1.3-.4h1.7V3.6l-2.4-.1a4 4 0 00-3 1.1c-.8.7-1.1 1.8-1.1 3V10H9v3.2H12v8.3H2.7c-.6 0-1.1-.2-1.5-.7-.5-.4-.7-1-.7-1.6V2.9c0-.7.2-1.2.7-1.6.4-.5 1-.7 1.6-.7h16.4c.7 0 1.2.2 1.6.7.5.4.7 1 .7 1.6z" fill="url(#paint0_linear)"/>
        </symbol>
        <symbol id="ig" viewBox="0 0 22 22">
            <path d="M11 5.6c-1 0-1.9.3-2.7.8a5.4 5.4 0 00-2 7.3 6 6 0 002 2 5.5 5.5 0 005.4 0 5.4 5.4 0 00-2.7-10zm0 9c-1 0-1.8-.4-2.5-1.1-.7-.7-1-1.5-1-2.5s.3-1.8 1-2.5 1.5-1 2.5-1 1.8.3 2.5 1 1 1.5 1 2.5-.3 1.8-1 2.5-1.5 1-2.5 1zm6.9-9.2c0 .3-.2.6-.4.9a1 1 0 01-.9.3c-.3 0-.6 0-.9-.3-.2-.3-.3-.6-.3-1 0-.3 0-.6.3-.8.3-.3.6-.4 1-.4.3 0 .6.1.8.4.3.2.4.5.4.9zm3.6 1.2L21 4.3c-.3-.8-.7-1.5-1.3-2-.5-.6-1.2-1-2-1.3A69.7 69.7 0 004.3 1 5.5 5.5 0 001 4.3C.7 5 .6 5.7.5 6.6a139.3 139.3 0 000 8.8l.5 2.3c.3.8.7 1.5 1.2 2 .6.6 1.3 1 2.1 1.3.7.2 1.4.4 2.3.4a72.1 72.1 0 0011.1-.4 5.4 5.4 0 003.3-3.3 72.1 72.1 0 00.4-11zm-2.3 10.6c-.4 1-1 1.6-2 2-.5.2-1.4.3-2.5.4h-4.4a68.3 68.3 0 01-5.5-.4c-1-.4-1.6-1-2-2-.2-.5-.3-1.4-.4-2.5v-4.4a68.4 68.4 0 01.4-5.5c.4-1 1-1.6 2-2 .5-.2 1.4-.3 2.5-.4h4.4a68.4 68.4 0 015.5.4c1 .4 1.6 1 2 2 .2.5.3 1.4.4 2.5v4.4a68.3 68.3 0 01-.4 5.5z" fill="url(#paint0_linear)"/>
        </symbol>
    </defs>
</svg>
