<svg fill="none" xmlns="http://www.w3.org/2000/svg" viewBox="0 0 24 20">
    <defs>
        <linearGradient id="paint0_linear" x1="12" y1="-1" x2="12" y2="23" gradientUnits="userSpaceOnUse">
            <stop stop-color="#BC9CFF"/>
            <stop offset="1" stop-color="#8BA4F9"/>
        </linearGradient>
    </defs>
    <path d="M21.5 5.1v.6c0 2.3-.5 4.5-1.6 6.5a13.5 13.5 0 01-12.4 7.5c-2.7 0-5.2-.7-7.5-2.2h1.2c2.3 0 4.3-.6 6.1-2-1 0-2-.3-2.9-1a5 5 0 01-1.7-2.4H5a5 5 0 01-2.8-1.8c-.7-1-1.1-2-1.1-3.1V7c.7.4 1.4.6 2.2.7C2.5 7.3 2 6.7 1.6 6 1.2 5.2 1 4.5 1 3.6c0-.9.2-1.7.7-2.5a13.6 13.6 0 0010.1 5.2V5.2c0-.9.1-1.7.6-2.5A4.8 4.8 0 0116.6.2c.7 0 1.4.2 2 .5.6.3 1.1.6 1.6 1.1A10 10 0 0023.3.6c-.3 1.2-1 2-2.1 2.7 1 0 1.9-.3 2.8-.8-.7 1-1.5 2-2.5 2.6z" fill="url(#paint0_linear)"/>
</svg>
