<svg viewBox="0 0 106 40" fill="none" xmlns="http://www.w3.org/2000/svg">
    <path d="M62.3 13.4c.3 0 .4 0 .6.2l.2.5c0 .2 0 .4-.2.6l-.6.2h-3.7v10.5l-.3.6-.5.2c-.2 0-.4 0-.5-.2a.8.8 0 01-.3-.6V15h-3.7c-.2 0-.4 0-.6-.2a.7.7 0 01-.2-.6c0-.2 0-.4.2-.5.2-.2.4-.2.6-.2h9zM69 13.4a6.5 6.5 0 015.8 9.3 7.2 7.2 0 01-3.7 3.2 6.4 6.4 0 01-4.7-.1 6.5 6.5 0 01-4-6 6.5 6.5 0 012.2-4.9h.2a6.3 6.3 0 014.1-1.5zm0 11.3a5 5 0 002.3-.6l-6.1-7.5a5 5 0 00.2 6.7c.5.5 1 .8 1.6 1 .6.3 1.2.4 2 .4zm3.5-1.5a4.8 4.8 0 001.3-3.4 4.8 4.8 0 00-1.4-3.4 4.8 4.8 0 00-6-.8l6.1 7.6zM82.4 20.6c-.3 0-.5 0-.6-.2l-4.5-5.8a.7.7 0 01-.2-.6c0-.2.1-.3.3-.5l.5-.1c.2 0 .4.1.5.3l4 5 3.8-5 .5-.2.5.1c.2.2.3.3.3.5l-.1.6-4.5 5.7-.5.2zm4.9 5.7H87l-.3-.1-.4-.3c-.2 0-.3-.2-.4-.4L82.4 21l-3.9 5-.5.2c-.2 0-.4 0-.5-.2a.7.7 0 01-.1-1l4.4-5.7c.1-.2.3-.3.5-.3.3 0 .5.1.6.3l4.1 5.3.2.1a50 50 0 01.6.3l.2.5c0 .2 0 .4-.2.5 0 .2-.3.3-.5.3zM91.7 26.3c-.2 0-.4-.1-.5-.3a.8.8 0 01-.3-.5V14c0-.2.1-.4.3-.5.1-.2.3-.3.5-.3l.6.3.2.5v11.4c0 .2 0 .4-.2.5l-.6.3zM105 26.2a.7.7 0 01-.7-.3L97 16.3v9.2c0 .2 0 .4-.2.5-.1.2-.3.2-.5.2a.8.8 0 01-.8-.7V14c0-.1 0-.3.2-.4l.4-.3h.4c.2 0 .3.1.4.3l7.3 9.6V14a.8.8 0 01.7-.7c.2 0 .4 0 .6.2l.2.5v11.4c0 .1 0 .3-.2.4l-.3.3h-.3z"
          fill="#1F2041"/>
    <path d="M20 27c-.6 0-1.2-.5-1.2-1.1 0-4.5-3.7-8.3-8.2-8.3-.7 0-1.2-.5-1.2-1.1 0-.7.5-1.2 1.2-1.2 5.8 0 10.6 4.7 10.6 10.6 0 .6-.6 1.2-1.2 1.2z"
          fill="url(#paint0_linear)"/>
    <path d="M30.6 16.5c0 .6-.5 1.1-1.2 1.1a8.2 8.2 0 00-6.8 3.6 12 12 0 00-1.1-2.3c2-2.2 4.8-3.6 8-3.6.6 0 1 .5 1 1.2z"
          fill="url(#paint1_linear)"/>
    <path d="M20 40a20 20 0 110-40 20 20 0 010 40zm0-37.6a17.7 17.7 0 100 35.3 17.7 17.7 0 000-35.3z"
          fill="url(#paint2_linear)"/>
    <defs>
        <linearGradient id="paint0_linear" x1="15.3" y1="15.3" x2="15.3" y2="27.1" gradientUnits="userSpaceOnUse">
            <stop stop-color="#BC9CFF"/>
            <stop offset="1" stop-color="#8BA4F9"/>
        </linearGradient>
        <linearGradient id="paint1_linear" x1="26" y1="15.3" x2="26" y2="21.2" gradientUnits="userSpaceOnUse">
            <stop stop-color="#6FCF97"/>
            <stop offset="1" stop-color="#66D2EA"/>
        </linearGradient>
        <linearGradient id="paint2_linear" x1="20" y1="0" x2="20" y2="40" gradientUnits="userSpaceOnUse">
            <stop stop-color="#BC9CFF"/>
            <stop offset="1" stop-color="#8BA4F9"/>
        </linearGradient>
    </defs>
</svg>
